/* XPM */
static char *_618680248900[] = {
/* columns rows colors chars-per-pixel */
"76 170 28 1 ",
"  c #2E1106",
". c #353535",
"X c #552006",
"o c #5B2C11",
"O c #494948",
"+ c #5E5A50",
"@ c #7A6E5A",
"# c #A02C00",
"$ c #96491C",
"% c #A9440B",
"& c #BE5313",
"* c #D66824",
"= c #C67B43",
"- c #928162",
"; c #9D8D6F",
": c #DC9353",
"> c #C1A37B",
", c #C7AD7F",
"< c #F5B674",
"1 c #D1B283",
"2 c #D9BF8B",
"3 c #E0CB93",
"4 c #E4D697",
"5 c #EDDB9E",
"6 c #F1E3A4",
"7 c #F9EDAD",
"8 c #FDFBCA",
"9 c None",
/* pixels */
"9999999999999999999999999999999999999999999999999999999999999999999999999999",
"999999999999999999999999999999999999X$99999999999999999999999999999999999999",
"999999999999999999999999999999999999%:99999999999999999999999999999999999999",
"99999999999999999999999999999999:X99**%$999999999999999999999999999999999999",
"99999999999999999999999999999999::$$*&*X99%:99999999999999999999999999999999",
"999999999999999999999999999:*$9977*&&&*%%***$9999999999999999999999999999999",
"9999999999999999999999999999*<<&676&&&&&==:*99999999999999999999999999999999",
"9999999999999999999999999999734=36:&:1=*767499999998999999999999999999999999",
"9999999999999999999999999=$X76434566776:54479999997-999999999999999999999999",
"99999999999999999999999999*#:655444444535457$$$%*779999999999999999999999999",
"9999999999999999999999999$==:5444444444544546:&*77$9999999999999999999999999",
"9999999999999999999999999$77644444445634455>75=77,99999999999999999999999999",
"99999999999999999999999999=6544444445:>3262:3=:7=999999999999999999999999999",
"99999999999999999999999999$6444444451>713615377<*999999999999999999999999999",
"9999999999999999999999999$:754444444467=7=:754+X9999999999999999999999999999",
"9999999999999999999999999*#:6444444444=:4>641*999999999999999999999999999999",
"99999999999999999999999999%46444444433:665455*999999999999999999999999999999",
"9999999999999999999999999;*764334332355543355*999999999999999999999999999999",
"99999999999999999999999,79X:4543212134443347:%999999999999999999999999999999",
"99999999999999999999998799=51534655544442246*X999999999999999999999999999999",
"99999999999999999999977,9X<762>2423444553373*9999999999999999999999999999999",
"999999999999999999997789$*372>>35333333324:*99999999999999999999999999999999",
"999999999999999999-77,999$751>;3435561>=15:999999999999999999999999999999999",
"99999999999999999,779999997441>2>35453==67%999999999999999999999999999999999",
"9999999999999999,77-9999977555612667761467$999999999999999999999999999999999",
"999999999999999,77,999999<362>453@@@;;4647X999999999999999999999999999999999",
"9999999999999997779X99999,4413243>>;;;3547X999999999999999999999999999999999",
"9999999999999977799& 9999<7334131@@;@@5547; .X999999999999999999999999999999",
"9999999999999877899$4  oo:@#24337>;;@;6564@  .X99999999999999999999999999999",
"9999999999999777999957;    @77511;>13347<    o999999999999999999999999999999",
"99999999999977799999&=77@ .O@>47<776622<#    9999999999999999999999999999999",
"99999999999777999999$#&77 OO.....=27475=   .99999999999999999999999999999999",
"999999999987789999999& ;7..OOOO.O7O277:.  O999999999999999999999999999999999",
"999999999,7-899999999*#+>> OOOO.;5..;1+   X999999999999999999999999999999999",
"999999999779,999999999&&@7@.OOO.;>..  .  O$999999999999999999999999999999999",
"99999999,7,9999999999%=7326.OOO.2@.OO    +****$99999999999999999999999999999",
"99999999779999999&***<56447; OO.>>.OOO+3O&&&&&**X999999999999999999999999999",
"9999999-7,99999*:<3656544456@1@.@4.+4>O4+**5765:*%99999999999999999999999999",
"9999999779999X&57764444444471@3..5+.2>@+O:4654676:#9999999999999999999999999",
"999999978999X++>6444444444463;7+.3@.+6;.+764444457=o999999999999999999999999",
"99999997999X>@.;7544444444454+5O.>>.+3+.;7444444455#999999999999999999999999",
"99999987999*71..3644444444447@+..@2.OO..;7444444447@#99999999999999999999999",
"9999997799#@37;.;544444444447+.OO+5.OOO.>74444444472 99999999999999999999999",
"9999997799O.+74.;744444444447OOOO.5.OOO.174444444473.#9999999999999999999999",
"999999789XO..>7OO764444444447OOOO.5OOOO.>7444444463+.#X999999999999999999999",
"999998779oOO.;7@.276544444447#OOO.5+OOO.;744444447@.O.#999999999999999999999",
"999997799.OO.17O.O@4544444447#.OO.2@.OO.+744444547..;;OX99999999999999999999",
"999999O99OO..66... >744444447#.OO.>;.OOO.75444447> =76;#99999999999999999999",
"999999999O.O17; ++OO754444447#.OO.;1.OOO.46444457. 7655>99999999999999999999",
"99999999X..>72.O776.464444447=.OOO@3.OOO.>7444471 :74457&9999999999999999999",
"99999999o;372..>657+;754444473.OOO+5.OOO.@744465.#7544477X999999999999999999",
"99999999%76@ .>6547@.>65444462.OOO.5.OOOO.75456@ ;7444447:999999999999999999",
"99999999#@. .>754474 .>7544462.OOO.5OOOOO.36471. 654444467X99999999999999999",
"99999999O.;567544466...>664462.OOO.3@.OOO.;756+..744444447:99999999999999999",
"99999999O;764444456<+...;66472.OOO.>;.OOO.+77;..+7444444457X9999999999999999",
"99999999.2654444456&OO...+5771.OOO.;>.OOOO.75O.@*7444444447:9999999999999999",
"9999999X.5544444457&.2>O..+272.OOO.@2.OOOO.1@..#&74444444467$999999999999999",
"9999999oO7544444465#@77>...O3>.OOOO@3.OOOOO+O.;<#74444444447<999999999999999",
"9999999.O744444455=#46571O..OOOOOOO.4.OOO+OO.O57#654444444457X99999999999999",
"9999999.@744444447=>754575@...O+OOO.3@.OOOOO.;77#174444444457499999999999999",
"9999999.>644444446#66444465;..OOOOO.>>.OOOOOO76=#*744444444447=9999999999999",
"9999999 7644444546#<:14444672.OOOOO.@2.OOOOO.473&&5644444444457%999999999999",
"9999999O754444446<#&*65544457.OOOOOO+5.OOOOO.@76&#*744444444447<999999999999",
"999999X@744444447:&&765555473.OOOOOO.5.OOOOOO.774&&6644444444457*99999999999",
"999999 >654444447=#&661=1547@.OOOOOO.5..OOOOO.>77&#=7444444444466X9999999999",
"999999 6644444447&&<76#&5547OOOOOO..O3;@+O.OO.+76:&*7544444444447:9999999999",
"999999 3644444447&&76=#27447.OOO.O@5765662@.OO.767%9<7444444444457%999999999",
"999999 4544444447&&77#=74457.OO.O33;.. ..;4;OO.276*9@7544444334447<X99999999",
"999999.7544444447#&7<#564556.OOO23+O;233;O+6;..;77:9957444444233557*99999999",
"999999O7544444456#:7&&754472.O.>7OO25@+;34++5+.+764$9*754444443>137<X9999999",
"999999O7544444546#<=#=54447>.OO5@O7;..OO.;4+>2..757*9X66444444453>34*9999999",
"999999O7544445325#*&&754447@.O;5.13O.OOOOO>1.6..367:99*6554444444542&9999999",
"999999+7444453>64#&&&654447O..4;.7+.OOOOO.O7 6..;763$9X<7444444444574%999999",
"999999+744452>47:&&&:644457.O.7@+7.OOO+OOO.7.7...755@99*76444444444467<99999",
"999999O754531456=&&&7544462.O.7O;7.OOOOOOO.5.4.O&557*999*55444444444457*9999",
"99999% 653215447=&&&754456@.O+5.;2.OOOOOOOO7.3O.::77:999%464444444444475X999",
"99999* 653444447*&&&6544451OO+7+@4O.OOOOO.O7.5+.3&77<9999:74444444444447:999",
"99999& 764444446&&:66444455+.O5>.42O.OOOO.>2.3O.7&475$999%764444444444457%99",
"99999#+744444457#&564444435>..@5@O41+....;5+;3.O7&:77@9999*554444444444466X9",
"99999#O744444457#46444444245+..;7+.273>>67@O7;.+4#*76*9999%<7444444444444779",
"99999#.754444457#754444454464O.O>7@..>11;O.>;..15=&77<99999*65544444444676;o",
"99999..754444456#654444521>=1;...;52O.  O13>O..462#774X9999$:65444444467@  9",
"99999%.564444457#6544445112565.OOO+>467574@..O.>56#:77%99999*3644444456#  99",
"99999$.>64444446#6544453>12334.OO...O++OOO..+;.@56=#67*99999$:654444445&o999",
"99999$O+75446777&5444451133342.O@;O...OOO.O+47..361#17:999999*:6445433549999",
"99999$+.7665>;277444443243334;..>752;OOOOO2556O.264#=73$999999*666443337$999",
"999999@.>.153#  @774443333336;.O24447;.OO+6345;.@66#&77&999999$77:#53446;999",
"999999;&5.;6575  .74443333336+.O24334>.OO.52342..66#&76*9999999:= +777>O+999",
"999999 =7+.5437<  74433333345O.O33334>....52344..47&#77:9999999$&o%7-9.@5$99",
"999999 #7;.264474>74433333345OOO433332@@@;22346..27=#77<$9999999X9,7$9937@99",
"999999 #73O@1;>37154433333333OO+543334653613346O.;73#667*999999999-<56-77$99",
"999999X#73O...O.2235333333342..@53333332>4>3334;.+37#176*9999999999$7365-999",
"9999999o>O..;43;423533333335>..;4333333214>33345..;7*#57<X9999999999$77$9999",
"99999999+@>;4661223333333345+O.54333333212133335>..1:#=7<%999999999999$99999",
"99999999176451:3&35333333344OO.643333331>23333345O.@7#&76*999999999999999999",
"99999999-712:41314433333335>..@5333333323433333362..3&&77<999999999999999999",
"999999999$:23:3:25433333335@..35333332314323333346;.;=#765$99999999999999999",
"999999999%&2122571233333345+..643333222133323333346.@<#665&99999999999999999",
"999999999*:745547&243333334OO.643333333123432333337.O2#555:99999999999999999",
"99999999X*5644456#543333343..+53333356=231234333346..2#4553X9999999999999999",
"99999999&&6544455#63333335;..>4334323*#:543>1343345@.;#2657%9999999999999999",
"99999999*<6444462#63333345@..54333611###13341>243351.;#1733*9999999999999999",
"9999999X*75444461#63333344+O.63346=&7=#&643342>23346.@#>732<9999999999999999",
"9999999%*74444462#6433335>O.+5345&#373##633333412346.+#:7456$999999999999999",
"9999999*:64444463#3234344O..3544&#=747##633333342137.O&=7434*999999999999999",
"9999999*654444471#3>12345OO.643:&#6647=#143333334227.O=&7431:999999999999999",
"999999$&65444447=#4321>2;O.@667:#:74462#=63333333335+.@#74455999999999999999",
"999999*:65444447&1422234O.O221#&2744457#&63333333346;.>#65446$99999999999999",
"999999*264444447#2112332O.+56:#17444447*#53333333336>.>#36543*99999999999999",
"999999*654444455#421113>..>22&#754444471#253323333343.>#17443<99999999999999",
"99999%&654444461#432223@..314&=744444456#=63333333346.;#=7445<99999999999999",
"99999*:64444447=&112233O.O433#2644444447&&73333333336.+**74444$9999999999999",
"99999*654444447#241>>11..;434#7444444447=#64333333346.O1#7446<*9999999999999",
"9999$&654444472#211335;..1>2==74444444462#44333333337..6#74453<9999999999999",
"9999&*65444447#&21>113+O.744#364444444456#>5333333336..4#75444<9999999999999",
"9999*<64444447#4531112O..323#744444444447#*6333333336..3#45446:,999999999999",
"9999*654444455#6543332.O@211&744444444447*&7333333337+.1&>7447=<999999999999",
"999$*744444463#*&13344..;424#7444444444462#5433333345+.;:&7447:<999999999999",
"999*=64444447:##15335>..2444#6444444444447#:633333335;.@7#65454=999999999999",
"999:164452457##164345+..646=*7444444444447:#6333333341.+7#65456&X99999999999",
"999::75552462#6633334O.O644#264444444444457#2433333345..7%14447*,99999999999",
"999+$4554147=#7333343..@55=&744444444444447=&623333337..7174447:499999999999",
"99=9$455=247&#633335>..355#26444444444444471#733333336..5&7444,-,99999999999",
"99<99765=447#=633345+..652&7444444444444447>#633333336.O5&744569999999999999",
"99<99772=556#1433344O.+66&:7444444444444447:#533333336..3$864478999999999999",
"9$<99,7::655#6433341..155#56445444444445547:#633333336OO>9977877999999999999",
"9O-99*7&:57,#633345;..643o,7774444445466667=#633333336+.&99789,7999999999999",
"9$999*7&:789#643334O..55<:,99,544467>779977>#633333336OO*99799,7-99999999999",
"9-999<<%98,9&433352..@66&999987545299-999777#633333336.O*997999,999999999999",
"999997&$9-99353335@..67<$9999,-7547799999-,9o543333337.O:X9,9999999999999999",
"999977&9999&543343O.O65&99999997777,99999999#:53333336.O<$999999999999999999",
"999%7&*,999=633351O.>56*99999999999999999999&:53333337O.:$999999999999999999",
"999%7$9999$:53345@..656%99999999999999999999&:53333336O.3$999999999999999999",
"9999,99999&443334O.O74:X99999999999999999999&343333346..1%999999999999999999",
"9999999999<543343O.@56=999999999999999999999@643333336O.>%999999999999999999",
"999999999X<43345;..455&999999999999999999999%543333337@.>&999999999999999999",
"999999999&643334O..647%999999999999999999999$343333345;.>*999999999999999999",
"999999999*533343O.+75<X999999999999999999999X<63333334;++*999999999999999999",
"999999999&63335>O.146*99999999999999999999999*65333335>.#*999999999999999999",
"99999999#&65435+..665&99999999999999999999999*&35544565 #*999999999999999999",
"99999999$&&2564O.O74&$99999999999999999999999*&&&1433&& o9999999999999999999",
"9999999999%#&74OO>7=&9999999999999999999999999X%#######999999999999999999999",
"99999999999*&#   &*&*99999999999999999999999999$&4344.@%99999999999999999999",
"999999999$%771..@X$X999999999999999999999999999:&5457.+499999999999999999999",
"999999999:=47;.;,999999999999999999999999999999633322@.;99999999999999999999",
"9999999997324+.2*$99999999999999999999999999999<622136.;$9999999999999999999",
"99999999X6433@.>2=99999999999999999999999999999*554237. 99999999999999999999",
"999999999:545O.>7$999999999999999999999999999999&12215.@99999999999999999999",
"9999999995222..749999999999999999999999999999999363122.>99999999999999999999",
"99999999X744;.O5%9999999999999999999999999999999<63214.;99999999999999999999",
"99999999%735+.;59999999999999999999999999999999$&33214.;<9999999999999999999",
"9999999%*544O.2*9999999999999999999999999999999$4443>4OO>9999999999999999999",
"999999933451..5%9999999999999999999999999999999X7312>5>.19999999999999999999",
"99999995413;.O5:99999999999999999999999999999999*444153.#9999999999999999999",
"9999999<636;.@6@99999999999999999999999999999999&=22132 +9999999999999999999",
"9999999*454+.27$9999999999999999999999999999999$75321>3;+o999999999999999999",
"9999999:3>;..4&99999999999999999999999999999999<63333342+O999999999999999999",
"999999*75;.O13$9999999999999999999999999999999965333344@.+O99999999999999999",
"999999*>O.O+46X999999999999999999999999999999995233336>.+3:&&X99999999999999",
"99999$ O.OO.;<99999999999999999999999999999999X7>43334+.144576<$999999999999",
"99999#### @@+*X9999999999999999999999999999999X714335>.@634343:=599999999999",
"99999&:<:=&##&$9999999999999999999999999999999X714446@.143223211259999999999",
"999X<766676:#&X9999999999999999999999999999999@1;>>22OO642123343>53999999999",
"999761:33447=#99999999999999999999999999999999:77644@.;121343325413$99999999",
"99,5112>411=4&999999999999999999999999999999999-,@77$o7731>>>1>>>>1<%9999999",
"99,33335=17#<#99999999999999999999999999999999999999999-,77777777777$9999999",
"99=:>>>1=33#3&999999999999999999999999999999999999999999999999---99999999999",
"99:4111212:=*999999999999999999999999999999999999999999999999999999999999999",
"99%777665677*999999999999999999999999999999999999999999999999999999999999999",
"99999-,,,,,99999999999999999999999999999999999999999999999999999999999999999"
};
